<?xml version="1.0" encoding="UTF-8"?>
<svg id="Layer_2" xmlns="http://www.w3.org/2000/svg" xmlns:xlink="http://www.w3.org/1999/xlink" viewBox="0 0 691.72 796">
  <defs>
    <style>
      .cls-1, .cls-2 {
        fill: #fff;
      }

      .cls-1, .cls-3 {
        stroke-miterlimit: 10;
      }

      .cls-1, .cls-3, .cls-4 {
        stroke: #fff;
      }

      .cls-3 {
        fill: none;
      }

      .cls-5 {
        fill: #a2bf00;
      }

      .cls-4 {
        fill: #fe602f;
        stroke-width: 20px;
      }

      .cls-6 {
        clip-path: url(#clippath);
      }
    </style>
    <clipPath id="clippath">
      <path class="cls-1" d="M593.99,315.75c-.16-.08-.33-.16-.5-.23-.15-.07-.28-.14-.43-.2-1.07-.53-2.35-.98-3.8-1.34-1.02-.28-2.06-.51-3.13-.67-1.79-.27-3.9-.36-6.15-.32-4.89-.01-10.54.62-16.58,2.03-.24.05-.49.11-.73.16-15.09,3.5-28.32,10.96-38.65,20.57-.12.11-.24.21-.35.31-.77.73-.8.66-2.35,2.4-.34.37-.8.9-1.55,1.76-4.17,4.78-14.29,16.56-41.01,47.56-.64.68-1.28,1.33-1.94,1.97-10.04,8.43-25.82,1.39-25.82-12.19v-42.02l51.69-193.27c3.23-12.1-.31-24.41-7.55-32.78-.02-.3-.13-.3-.27-.3-2.66-3.01-5.81-5.49-9.29-7.24-.02-.01-.05-.02-.07-.04-.48-.27-.96-.52-1.44-.76-.05-.03-.11-.05-.16-.08-8.33-4.11-17.58-4.55-25.89-2-.2.06-.39.12-.59.19-.35.12-.71.23-1.06.35-.6.21-1.19.45-1.78.69-.05.02-.09.04-.14.06-5.4,2.28-10.21,5.84-13.79,10.42-.92,1.15-1.78,2.38-2.56,3.66-.66.94-1.16,1.66-1.97,3.77-.4.89-.78,1.8-1.11,2.74-.21.54.13-.71-2.7,9.12-5.76,19.32-18.77,65.64-52.33,182.9V103.52c0-.78-.03-1.56-.08-2.33-.02-.28-.04-.56-.07-.83-.04-.47-.09-.93-.15-1.39-.19-1.53-.48-3.02-.86-4.47-.01-.05-.03-.1-.04-.15-1.06-4.02-2.79-7.7-5.05-10.97-.09-.13-.18-.26-.27-.38-.25-.36-.51-.71-.77-1.05-.31-.4-.62-.79-.94-1.18-.09-.11-.18-.23-.27-.34-4.09-4.79-9.43-8.48-15.54-10.56-.02,0-.03-.01-.05-.02-.61-.21-1.23-.4-1.85-.57-4.07-1.17-8.37-1.62-12.7-1.23-6.56.32-13.27,3.03-18.87,7.57-.62.44-4.34,3.52-7.16,7.65-2.57,3.61-4.81,8.64-5.77,13.97-.18,1.04-.3.95-.39,2.62-.11,1.05-.16,3.5-.18,17.81-.05,22.81.02,73.64.02,189.19-.06-.22-.13-.47-.19-.73-.99-3.7-4.25-15.9-8.63-32.26-12.71-47.54-34.22-127.99-37.69-140.96-.23-.87-.5-1.72-.79-2.55-.2-.59-.43-1.15-.66-1.71-.07-.18-.14-.36-.22-.54-3.56-8.49-9.88-14.59-17.33-18.07-.5-.24-1.01-.46-1.53-.68-.13-.05-.26-.11-.39-.17-1.62-.66-3.28-1.22-4.98-1.63-.03,0-.08,0-.15.02-14.99-3.54-32.1,2.36-40.23,19.08-1.78,3.56-3.07,8.67-3.07,9.7-1.78,10.23-2,4.69,48.46,193.35.06,0-13.07-23-31.13-54.03-14.29-24.81,17.06,29.61-31.92-55.38-1.1-1.91-2.36-3.64-3.74-5.2h0s-.02-.03-.03-.04c-2.23-2.52-4.79-4.6-7.56-6.22-1.74-1.05-3.66-1.95-5.9-2.69-.13-.04-.26-.09-.39-.13-.43-.14-.87-.27-1.32-.39-.03,0-.05-.01-.08-.02-.69-.18-1.38-.35-2.07-.49-.33-.07-.66-.11-.98-.17-.32-.05-.64-.11-.96-.15-.45-.06-.91-.11-1.36-.15-.18-.02-.35-.03-.53-.05-.52-.04-1.03-.07-1.54-.08-.06,0-.11,0-.17,0-1.68-.04-3.34.06-4.97.29-.17.02-.35.04-.52.07-.38.06-.75.13-1.13.2-.35.07-.69.14-1.04.21-.27.06-.53.12-.8.19-.52.13-1.05.28-1.56.44-.1.03-.21.06-.31.09-4.09,1.3-7.96,3.47-11.34,6.5-.04.03-.08.07-.12.1-.48.44-.96.89-1.42,1.37-.07.07-.14.13-.2.2-.5.53-1,1.07-1.47,1.64-8.3,9.93-9.9,24.33-3.12,36.09l44.27,76.84c17.32,30.06,26.44,64.14,26.44,98.85,0,72.02,58.28,130.41,130.16,130.41h27.95c37.66,0,73.78-14.99,100.42-41.67l148.06-155.27c14.45-14.48,9.57-37.33-7.23-45.31Z"/>
    </clipPath>
  </defs>
  <g id="Layer_1-2" data-name="Layer_1">
    <g>
      <path class="cls-2" d="M593.99,315.75c-.16-.08-.33-.16-.5-.23-.15-.07-.28-.14-.43-.2-1.07-.53-2.35-.98-3.8-1.34-1.02-.28-2.06-.51-3.13-.67-1.79-.27-3.9-.36-6.15-.32-4.89-.01-10.54.62-16.58,2.03-.24.05-.49.11-.73.16-15.09,3.5-28.32,10.96-38.65,20.57-.12.11-.24.21-.35.31-.77.73-.8.66-2.35,2.4-.34.37-.8.9-1.55,1.76-4.17,4.78-14.29,16.56-41.01,47.56-.64.68-1.28,1.33-1.94,1.97-10.04,8.43-25.82,1.39-25.82-12.19v-42.02l51.69-193.27c3.23-12.1-.31-24.41-7.55-32.78-.02-.3-.13-.3-.27-.3-2.66-3.01-5.81-5.49-9.29-7.24-.02-.01-.05-.02-.07-.04-.48-.27-.96-.52-1.44-.76-.05-.03-.11-.05-.16-.08-8.33-4.11-17.58-4.55-25.89-2-.2.06-.39.12-.59.19-.35.12-.71.23-1.06.35-.6.21-1.19.45-1.78.69-.05.02-.09.04-.14.06-5.4,2.28-10.21,5.84-13.79,10.42-.92,1.15-1.78,2.38-2.56,3.66-.66.94-1.16,1.66-1.97,3.77-.4.89-.78,1.8-1.11,2.74-.21.54.13-.71-2.7,9.12-5.76,19.32-18.77,65.64-52.33,182.9V103.52c0-.78-.03-1.56-.08-2.33-.02-.28-.04-.56-.07-.83-.04-.47-.09-.93-.15-1.39-.19-1.53-.48-3.02-.86-4.47-.01-.05-.03-.1-.04-.15-1.06-4.02-2.79-7.7-5.05-10.97-.09-.13-.18-.26-.27-.38-.25-.36-.51-.71-.77-1.05-.31-.4-.62-.79-.94-1.18-.09-.11-.18-.23-.27-.34-4.09-4.79-9.43-8.48-15.54-10.56-.02,0-.03-.01-.05-.02-.61-.21-1.23-.4-1.85-.57-4.07-1.17-8.37-1.62-12.7-1.23-6.56.32-13.27,3.03-18.87,7.57-.62.44-4.34,3.52-7.16,7.65-2.57,3.61-4.81,8.64-5.77,13.97-.18,1.04-.3.95-.39,2.62-.11,1.05-.16,3.5-.18,17.81-.05,22.81.02,73.64.02,189.19-.06-.22-.13-.47-.19-.73-.99-3.7-4.25-15.9-8.63-32.26-12.71-47.54-34.22-127.99-37.69-140.96-.23-.87-.5-1.72-.79-2.55-.2-.59-.43-1.15-.66-1.71-.07-.18-.14-.36-.22-.54-3.56-8.49-9.88-14.59-17.33-18.07-.5-.24-1.01-.46-1.53-.68-.13-.05-.26-.11-.39-.17-1.62-.66-3.28-1.22-4.98-1.63-.03,0-.08,0-.15.02-14.99-3.54-32.1,2.36-40.23,19.08-1.78,3.56-3.07,8.67-3.07,9.7-1.78,10.23-2,4.69,48.46,193.35.06,0-13.07-23-31.13-54.03-14.29-24.81,17.06,29.61-31.92-55.38-1.1-1.91-2.36-3.64-3.74-5.2h0s-.02-.03-.03-.04c-2.23-2.52-4.79-4.6-7.56-6.22-1.74-1.05-3.66-1.95-5.9-2.69-.13-.04-.26-.09-.39-.13-.43-.14-.87-.27-1.32-.39-.03,0-.05-.01-.08-.02-.69-.18-1.38-.35-2.07-.49-.33-.07-.66-.11-.98-.17-.32-.05-.64-.11-.96-.15-.45-.06-.91-.11-1.36-.15-.18-.02-.35-.03-.53-.05-.52-.04-1.03-.07-1.54-.08-.06,0-.11,0-.17,0-1.68-.04-3.34.06-4.97.29-.17.02-.35.04-.52.07-.38.06-.75.13-1.13.2-.35.07-.69.14-1.04.21-.27.06-.53.12-.8.19-.52.13-1.05.28-1.56.44-.1.03-.21.06-.31.09-4.09,1.3-7.96,3.47-11.34,6.5-.04.03-.08.07-.12.1-.48.44-.96.89-1.42,1.37-.07.07-.14.13-.2.2-.5.53-1,1.07-1.47,1.64-8.3,9.93-9.9,24.33-3.12,36.09l44.27,76.84c17.32,30.06,26.44,64.14,26.44,98.85,0,72.02,58.28,130.41,130.16,130.41h27.95c37.66,0,73.78-14.99,100.42-41.67l148.06-155.27c14.45-14.48,9.57-37.33-7.23-45.31Z"/>
      <g class="cls-6">
        <circle class="cls-5" cx="388" cy="619" r="177"/>
        <circle class="cls-5" cx="229" cy="229" r="229"/>
        <circle class="cls-4" cx="496.25" cy="253.8" r="185.46"/>
      </g>
      <path class="cls-3" d="M593.99,315.75c-.16-.08-.33-.16-.5-.23-.15-.07-.28-.14-.43-.2-1.07-.53-2.35-.98-3.8-1.34-1.02-.28-2.06-.51-3.13-.67-1.79-.27-3.9-.36-6.15-.32-4.89-.01-10.54.62-16.58,2.03-.24.05-.49.11-.73.16-15.09,3.5-28.32,10.96-38.65,20.57-.12.11-.24.21-.35.31-.77.73-.8.66-2.35,2.4-.34.37-.8.9-1.55,1.76-4.17,4.78-14.29,16.56-41.01,47.56-.64.68-1.28,1.33-1.94,1.97-10.04,8.43-25.82,1.39-25.82-12.19v-42.02l51.69-193.27c3.23-12.1-.31-24.41-7.55-32.78-.02-.3-.13-.3-.27-.3-2.66-3.01-5.81-5.49-9.29-7.24-.02-.01-.05-.02-.07-.04-.48-.27-.96-.52-1.44-.76-.05-.03-.11-.05-.16-.08-8.33-4.11-17.58-4.55-25.89-2-.2.06-.39.12-.59.19-.35.12-.71.23-1.06.35-.6.21-1.19.45-1.78.69-.05.02-.09.04-.14.06-5.4,2.28-10.21,5.84-13.79,10.42-.92,1.15-1.78,2.38-2.56,3.66-.66.94-1.16,1.66-1.97,3.77-.4.89-.78,1.8-1.11,2.74-.21.54.13-.71-2.7,9.12-5.76,19.32-18.77,65.64-52.33,182.9V103.52c0-.78-.03-1.56-.08-2.33-.02-.28-.04-.56-.07-.83-.04-.47-.09-.93-.15-1.39-.19-1.53-.48-3.02-.86-4.47-.01-.05-.03-.1-.04-.15-1.06-4.02-2.79-7.7-5.05-10.97-.09-.13-.18-.26-.27-.38-.25-.36-.51-.71-.77-1.05-.31-.4-.62-.79-.94-1.18-.09-.11-.18-.23-.27-.34-4.09-4.79-9.43-8.48-15.54-10.56-.02,0-.03-.01-.05-.02-.61-.21-1.23-.4-1.85-.57-4.07-1.17-8.37-1.62-12.7-1.23-6.56.32-13.27,3.03-18.87,7.57-.62.44-4.34,3.52-7.16,7.65-2.57,3.61-4.81,8.64-5.77,13.97-.18,1.04-.3.95-.39,2.62-.11,1.05-.16,3.5-.18,17.81-.05,22.81.02,73.64.02,189.19-.06-.22-.13-.47-.19-.73-.99-3.7-4.25-15.9-8.63-32.26-12.71-47.54-34.22-127.99-37.69-140.96-.23-.87-.5-1.72-.79-2.55-.2-.59-.43-1.15-.66-1.71-.07-.18-.14-.36-.22-.54-3.56-8.49-9.88-14.59-17.33-18.07-.5-.24-1.01-.46-1.53-.68-.13-.05-.26-.11-.39-.17-1.62-.66-3.28-1.22-4.98-1.63-.03,0-.08,0-.15.02-14.99-3.54-32.1,2.36-40.23,19.08-1.78,3.56-3.07,8.67-3.07,9.7-1.78,10.23-2,4.69,48.46,193.35.06,0-13.07-23-31.13-54.03-14.29-24.81,17.06,29.61-31.92-55.38-1.1-1.91-2.36-3.64-3.74-5.2h0s-.02-.03-.03-.04c-2.23-2.52-4.79-4.6-7.56-6.22-1.74-1.05-3.66-1.95-5.9-2.69-.13-.04-.26-.09-.39-.13-.43-.14-.87-.27-1.32-.39-.03,0-.05-.01-.08-.02-.69-.18-1.38-.35-2.07-.49-.33-.07-.66-.11-.98-.17-.32-.05-.64-.11-.96-.15-.45-.06-.91-.11-1.36-.15-.18-.02-.35-.03-.53-.05-.52-.04-1.03-.07-1.54-.08-.06,0-.11,0-.17,0-1.68-.04-3.34.06-4.97.29-.17.02-.35.04-.52.07-.38.06-.75.13-1.13.2-.35.07-.69.14-1.04.21-.27.06-.53.12-.8.19-.52.13-1.05.28-1.56.44-.1.03-.21.06-.31.09-4.09,1.3-7.96,3.47-11.34,6.5-.04.03-.08.07-.12.1-.48.44-.96.89-1.42,1.37-.07.07-.14.13-.2.2-.5.53-1,1.07-1.47,1.64-8.3,9.93-9.9,24.33-3.12,36.09l44.27,76.84c17.32,30.06,26.44,64.14,26.44,98.85,0,72.02,58.28,130.41,130.16,130.41h27.95c37.66,0,73.78-14.99,100.42-41.67l148.06-155.27c14.45-14.48,9.57-37.33-7.23-45.31Z"/>
    </g>
  </g>
</svg>