<svg xmlns="http://www.w3.org/2000/svg" xmlns:xlink="http://www.w3.org/1999/xlink" width="500" zoomAndPan="magnify" viewBox="0 0 375 374.999991" height="500" preserveAspectRatio="xMidYMid meet" version="1.0"><defs><clipPath id="9660405073"><path d="M 187.5 0 C 83.945312 0 0 83.945312 0 187.5 C 0 291.054688 83.945312 375 187.5 375 C 291.054688 375 375 291.054688 375 187.5 C 375 83.945312 291.054688 0 187.5 0 Z M 187.5 0 " clip-rule="nonzero"/></clipPath><clipPath id="469ace8c74"><path d="M 191 223 L 288 223 L 288 297.84375 L 191 297.84375 Z M 191 223 " clip-rule="nonzero"/></clipPath><clipPath id="427b2a0ee5"><path d="M 78 77.34375 L 178 77.34375 L 178 215 L 78 215 Z M 78 77.34375 " clip-rule="nonzero"/></clipPath><clipPath id="ea4879c5f4"><path d="M 102 244 L 187 244 L 187 297.84375 L 102 297.84375 Z M 102 244 " clip-rule="nonzero"/></clipPath></defs><g clip-path="url(#9660405073)"><rect x="-37.5" width="450" fill="#ffffff" y="-37.499999" height="449.999989" fill-opacity="1"/></g><g clip-path="url(#469ace8c74)"><path fill="#8ddfff" d="M 273.828125 227.296875 L 272.238281 227.707031 L 271.738281 229.273438 C 271.410156 230.296875 271.085938 231.316406 270.753906 232.324219 C 264.097656 252.636719 256.582031 267.359375 248.417969 276.082031 C 241.710938 283.246094 235.984375 284.75 232.363281 284.75 C 232.167969 284.75 231.980469 284.746094 231.789062 284.738281 C 222.578125 284.359375 216.007812 274.59375 213.722656 268.371094 C 206.59375 248.976562 191.261719 243.753906 191.261719 243.753906 L 193.035156 247.40625 C 193.257812 247.863281 193.371094 248.148438 193.371094 248.148438 L 193.425781 248.28125 L 193.46875 248.367188 C 194.75 250.988281 196.015625 254.171875 197.238281 257.832031 C 198.546875 261.777344 199.828125 266.34375 201.035156 271.402344 C 204.011719 283.878906 216.128906 297.160156 231.253906 297.78125 C 231.632812 297.796875 232.015625 297.804688 232.402344 297.804688 C 241.265625 297.804688 249.707031 293.660156 257.492188 285.488281 C 267.179688 275.316406 275.816406 258.792969 283.15625 236.386719 C 283.953125 233.945312 284.753906 231.425781 285.527344 228.910156 L 287.113281 223.757812 L 281.914062 225.160156 C 278.992188 225.953125 276.351562 226.652344 273.828125 227.296875 Z M 273.828125 227.296875 " fill-opacity="1" fill-rule="nonzero"/></g><path fill="#8ddfff" d="M 283.445312 95.953125 C 282.796875 95.425781 282.128906 94.867188 281.429688 94.28125 C 275.667969 89.484375 267.769531 82.910156 257.582031 79.9375 C 254.019531 78.894531 250.363281 78.367188 246.714844 78.367188 C 237.84375 78.367188 228.789062 81.457031 219.808594 87.550781 C 217.703125 88.980469 214.496094 91.304688 211.015625 94.9375 C 199.09375 107.394531 184.675781 113.707031 168.160156 113.707031 C 152.472656 113.707031 140.5 107.800781 140.386719 107.742188 C 140.386719 107.742188 162.792969 131.785156 186.863281 125.183594 C 203.339844 120.667969 214.355469 109.472656 219.898438 104.484375 C 222.882812 101.804688 225.460938 99.484375 227.125 98.355469 C 234.03125 93.671875 240.433594 91.398438 246.703125 91.398438 C 257.566406 91.398438 266.171875 98.5625 273.082031 104.316406 C 273.8125 104.925781 274.515625 105.507812 275.191406 106.0625 C 288.933594 117.289062 290.992188 149.9375 280.847656 195.632812 L 279.832031 200.207031 L 284.402344 199.179688 C 287.023438 198.59375 289.617188 197.992188 292.109375 197.40625 L 293.941406 196.972656 L 294.335938 195.128906 C 297.234375 181.484375 299.097656 168.789062 299.871094 157.394531 C 301.914062 127.203125 296.386719 106.53125 283.445312 95.953125 Z M 283.445312 95.953125 " fill-opacity="1" fill-rule="nonzero"/><g clip-path="url(#427b2a0ee5)"><path fill="#0da9e9" d="M 102.503906 209.675781 C 100.117188 201.453125 98.054688 193.28125 96.371094 185.386719 C 87.925781 145.753906 89.570312 118.15625 101.265625 103.367188 C 111.042969 91 126.070312 90.671875 134.152344 90.492188 L 134.628906 90.480469 L 134.796875 90.480469 C 144.253906 90.480469 167.34375 96.867188 177.277344 102.445312 C 177.277344 102.445312 152.402344 77.425781 134.757812 77.425781 C 134.613281 77.425781 134.472656 77.425781 134.339844 77.429688 L 133.863281 77.441406 C 124.375 77.648438 104.621094 78.082031 91.039062 95.265625 C 82.125 106.542969 77.777344 123.140625 78.117188 144.605469 L 78.175781 146.667969 C 78.226562 148.308594 78.289062 149.78125 78.367188 151.175781 L 78.441406 152.5 C 79.125 163.238281 80.863281 175.21875 83.613281 188.113281 C 85.125 195.207031 86.957031 202.601562 89.058594 210.082031 L 89.558594 211.878906 L 91.390625 212.207031 C 93.910156 212.664062 96.550781 213.082031 99.238281 213.457031 L 103.785156 214.09375 Z M 102.503906 209.675781 " fill-opacity="1" fill-rule="nonzero"/></g><g clip-path="url(#ea4879c5f4)"><path fill="#0da9e9" d="M 157.371094 264.214844 C 155.59375 267 154.160156 269.375 152.871094 271.453125 C 146.652344 281.535156 145.96875 282.511719 142.195312 283.882812 C 141.960938 283.96875 141.71875 284.011719 141.464844 284.011719 C 140.820312 284.011719 140.023438 283.75 139.101562 283.238281 C 133.128906 279.925781 125.371094 268.488281 117.820312 251.863281 L 117.015625 250.085938 L 115.0625 250.121094 C 112.449219 250.164062 109.863281 250.191406 107.367188 250.195312 L 102.824219 250.203125 L 104.652344 254.367188 C 114.15625 276.023438 123.621094 289.578125 132.777344 294.660156 C 135.675781 296.265625 138.59375 297.082031 141.457031 297.082031 C 143.21875 297.082031 144.96875 296.769531 146.652344 296.152344 C 156.171875 292.6875 158.816406 288.050781 168.640625 270.792969 C 172.378906 264.222656 178.074219 254.878906 181.816406 250.175781 L 186.359375 244.464844 C 186.363281 244.464844 167.339844 248.625 157.371094 264.214844 Z M 157.371094 264.214844 " fill-opacity="1" fill-rule="nonzero"/></g><path fill="#0da9e9" d="M 268.34375 211.75 C 149.535156 235.4375 47.703125 226.917969 40.898438 192.71875 C 38.394531 180.164062 49.058594 165.886719 69.429688 151.679688 C 69.335938 150.074219 69.277344 148.496094 69.230469 146.933594 C 25.671875 167.421875 0.00390625 190.027344 3.742188 208.796875 C 10.550781 243 112.382812 251.523438 231.1875 227.828125 C 288.105469 216.480469 338.59375 199.796875 375 181.734375 C 344.25 193.429688 307.84375 203.875 268.34375 211.75 Z M 268.34375 211.75 " fill-opacity="1" fill-rule="nonzero"/></svg>