<svg xmlns="http://www.w3.org/2000/svg" xmlns:xlink="http://www.w3.org/1999/xlink" width="500" zoomAndPan="magnify" viewBox="0 0 375 374.999991" height="500" preserveAspectRatio="xMidYMid meet" version="1.0"><defs><clipPath id="b2a3eeacf6"><path d="M 0 37.5 L 313 37.5 L 313 275 L 0 275 Z M 0 37.5 " clip-rule="nonzero"/></clipPath><clipPath id="6028591d0a"><path d="M 237 200 L 375 200 L 375 337.5 L 237 337.5 Z M 237 200 " clip-rule="nonzero"/></clipPath></defs><g clip-path="url(#b2a3eeacf6)"><path fill="#dbf5ff" d="M 281.25 37.5 L 31.25 37.5 C 30.226562 37.5 29.207031 37.550781 28.1875 37.652344 C 27.171875 37.753906 26.160156 37.90625 25.15625 38.105469 C 24.152344 38.308594 23.160156 38.554688 22.183594 38.855469 C 21.203125 39.152344 20.242188 39.496094 19.296875 39.890625 C 18.351562 40.28125 17.429688 40.71875 16.527344 41.199219 C 15.625 41.683594 14.746094 42.210938 13.898438 42.777344 C 13.046875 43.347656 12.226562 43.957031 11.433594 44.605469 C 10.644531 45.253906 9.886719 45.941406 9.164062 46.664062 C 8.441406 47.386719 7.753906 48.144531 7.105469 48.933594 C 6.457031 49.726562 5.847656 50.546875 5.277344 51.398438 C 4.710938 52.246094 4.183594 53.125 3.699219 54.027344 C 3.21875 54.929688 2.78125 55.851562 2.390625 56.796875 C 1.996094 57.742188 1.652344 58.703125 1.355469 59.683594 C 1.054688 60.660156 0.808594 61.652344 0.605469 62.65625 C 0.40625 63.660156 0.253906 64.671875 0.152344 65.6875 C 0.0507812 66.707031 0 67.726562 0 68.75 L 0 243.75 C 0 244.773438 0.0507812 245.792969 0.152344 246.8125 C 0.253906 247.828125 0.40625 248.839844 0.605469 249.84375 C 0.808594 250.847656 1.054688 251.839844 1.355469 252.816406 C 1.652344 253.796875 1.996094 254.757812 2.390625 255.703125 C 2.78125 256.648438 3.21875 257.570312 3.699219 258.472656 C 4.183594 259.375 4.710938 260.253906 5.277344 261.101562 C 5.847656 261.953125 6.457031 262.773438 7.105469 263.566406 C 7.753906 264.355469 8.441406 265.113281 9.164062 265.835938 C 9.886719 266.558594 10.644531 267.246094 11.433594 267.894531 C 12.226562 268.542969 13.046875 269.152344 13.898438 269.722656 C 14.746094 270.289062 15.625 270.816406 16.527344 271.300781 C 17.429688 271.78125 18.351562 272.21875 19.296875 272.609375 C 20.242188 273.003906 21.203125 273.347656 22.183594 273.644531 C 23.160156 273.945312 24.152344 274.191406 25.15625 274.394531 C 26.160156 274.59375 27.171875 274.746094 28.1875 274.847656 C 29.207031 274.949219 30.226562 275 31.25 275 L 306.25 275 C 306.660156 275 307.066406 274.960938 307.46875 274.878906 C 307.871094 274.800781 308.261719 274.679688 308.640625 274.523438 C 309.019531 274.367188 309.382812 274.175781 309.722656 273.945312 C 310.0625 273.71875 310.378906 273.460938 310.667969 273.167969 C 310.960938 272.878906 311.21875 272.5625 311.445312 272.222656 C 311.675781 271.882812 311.867188 271.519531 312.023438 271.140625 C 312.179688 270.761719 312.300781 270.371094 312.378906 269.96875 C 312.460938 269.566406 312.5 269.160156 312.5 268.75 L 312.5 68.75 C 312.5 67.726562 312.449219 66.707031 312.347656 65.6875 C 312.246094 64.671875 312.09375 63.660156 311.894531 62.65625 C 311.691406 61.652344 311.445312 60.660156 311.144531 59.683594 C 310.847656 58.703125 310.503906 57.742188 310.109375 56.796875 C 309.71875 55.851562 309.28125 54.929688 308.800781 54.027344 C 308.316406 53.125 307.789062 52.246094 307.222656 51.398438 C 306.652344 50.546875 306.042969 49.726562 305.394531 48.933594 C 304.746094 48.144531 304.058594 47.386719 303.335938 46.664062 C 302.613281 45.941406 301.855469 45.253906 301.066406 44.605469 C 300.273438 43.957031 299.453125 43.347656 298.601562 42.777344 C 297.753906 42.210938 296.875 41.683594 295.972656 41.199219 C 295.070312 40.71875 294.148438 40.28125 293.203125 39.890625 C 292.257812 39.496094 291.296875 39.152344 290.316406 38.855469 C 289.339844 38.554688 288.347656 38.308594 287.34375 38.105469 C 286.339844 37.90625 285.328125 37.753906 284.3125 37.652344 C 283.292969 37.550781 282.273438 37.5 281.25 37.5 Z M 281.25 37.5 " fill-opacity="1" fill-rule="nonzero"/></g><path fill="#8ddfff" d="M 235.542969 89.203125 C 234.957031 88.617188 234.28125 88.167969 233.515625 87.851562 C 232.75 87.535156 231.953125 87.375 231.125 87.375 C 230.296875 87.375 229.496094 87.535156 228.730469 87.855469 C 227.964844 88.171875 227.289062 88.625 226.703125 89.210938 L 151.835938 164.347656 C 151.546875 164.640625 151.289062 164.953125 151.0625 165.296875 C 150.835938 165.636719 150.644531 165.996094 150.488281 166.375 C 150.328125 166.753906 150.210938 167.144531 150.132812 167.546875 C 150.050781 167.949219 150.011719 168.355469 150.011719 168.765625 C 150.011719 169.175781 150.054688 169.582031 150.132812 169.984375 C 150.214844 170.386719 150.332031 170.777344 150.488281 171.15625 C 150.648438 171.535156 150.839844 171.894531 151.066406 172.234375 C 151.296875 172.574219 151.554688 172.890625 151.84375 173.179688 L 253.664062 275 L 306.25 275 C 306.660156 275 307.066406 274.960938 307.46875 274.878906 C 307.871094 274.800781 308.261719 274.679688 308.640625 274.523438 C 309.019531 274.367188 309.382812 274.175781 309.722656 273.945312 C 310.0625 273.71875 310.378906 273.460938 310.667969 273.167969 C 310.960938 272.878906 311.21875 272.5625 311.445312 272.222656 C 311.675781 271.882812 311.867188 271.519531 312.023438 271.140625 C 312.179688 270.761719 312.300781 270.371094 312.378906 269.96875 C 312.460938 269.566406 312.5 269.160156 312.5 268.75 L 312.5 166.164062 Z M 235.542969 89.203125 " fill-opacity="1" fill-rule="nonzero"/><path fill="#0da9e9" d="M 122.90625 126.570312 C 122.320312 125.980469 121.644531 125.53125 120.878906 125.214844 C 120.113281 124.894531 119.316406 124.738281 118.488281 124.738281 C 117.660156 124.738281 116.859375 124.898438 116.09375 125.214844 C 115.328125 125.535156 114.652344 125.988281 114.070312 126.574219 L 0 241.039062 L 0 243.75 C 0 244.773438 0.0507812 245.792969 0.152344 246.8125 C 0.253906 247.828125 0.40625 248.839844 0.605469 249.84375 C 0.808594 250.847656 1.054688 251.839844 1.355469 252.816406 C 1.652344 253.796875 1.996094 254.757812 2.390625 255.703125 C 2.78125 256.648438 3.21875 257.570312 3.699219 258.472656 C 4.183594 259.375 4.710938 260.253906 5.277344 261.101562 C 5.847656 261.953125 6.457031 262.773438 7.105469 263.566406 C 7.753906 264.355469 8.441406 265.113281 9.164062 265.835938 C 9.886719 266.558594 10.644531 267.246094 11.433594 267.894531 C 12.226562 268.542969 13.046875 269.152344 13.898438 269.722656 C 14.746094 270.289062 15.625 270.816406 16.527344 271.300781 C 17.429688 271.78125 18.351562 272.21875 19.296875 272.609375 C 20.242188 273.003906 21.203125 273.347656 22.183594 273.644531 C 23.160156 273.945312 24.152344 274.191406 25.15625 274.394531 C 26.160156 274.59375 27.171875 274.746094 28.1875 274.847656 C 29.207031 274.949219 30.226562 275 31.25 275 L 271.335938 275 Z M 122.90625 126.570312 " fill-opacity="1" fill-rule="nonzero"/><path fill="#0da9e9" d="M 175 106.25 C 175 106.863281 174.96875 107.476562 174.910156 108.085938 C 174.847656 108.699219 174.757812 109.304688 174.640625 109.90625 C 174.519531 110.511719 174.371094 111.105469 174.191406 111.691406 C 174.015625 112.28125 173.808594 112.859375 173.574219 113.425781 C 173.335938 113.992188 173.074219 114.546875 172.785156 115.089844 C 172.496094 115.628906 172.179688 116.15625 171.839844 116.667969 C 171.5 117.175781 171.132812 117.671875 170.742188 118.144531 C 170.355469 118.621094 169.941406 119.074219 169.507812 119.507812 C 169.074219 119.941406 168.621094 120.355469 168.144531 120.742188 C 167.671875 121.132812 167.175781 121.5 166.667969 121.839844 C 166.15625 122.179688 165.628906 122.496094 165.089844 122.785156 C 164.546875 123.074219 163.992188 123.335938 163.425781 123.574219 C 162.859375 123.808594 162.28125 124.015625 161.691406 124.191406 C 161.105469 124.371094 160.511719 124.519531 159.90625 124.640625 C 159.304688 124.757812 158.699219 124.847656 158.085938 124.910156 C 157.476562 124.96875 156.863281 125 156.25 125 C 155.636719 125 155.023438 124.96875 154.414062 124.910156 C 153.800781 124.847656 153.195312 124.757812 152.59375 124.640625 C 151.988281 124.519531 151.394531 124.371094 150.808594 124.191406 C 150.21875 124.015625 149.640625 123.808594 149.074219 123.574219 C 148.507812 123.335938 147.953125 123.074219 147.410156 122.785156 C 146.871094 122.496094 146.34375 122.179688 145.832031 121.839844 C 145.324219 121.5 144.828125 121.132812 144.355469 120.742188 C 143.878906 120.355469 143.425781 119.941406 142.992188 119.507812 C 142.558594 119.074219 142.144531 118.621094 141.757812 118.144531 C 141.367188 117.671875 141 117.175781 140.660156 116.667969 C 140.320312 116.15625 140.003906 115.628906 139.714844 115.089844 C 139.425781 114.546875 139.164062 113.992188 138.925781 113.425781 C 138.691406 112.859375 138.484375 112.28125 138.308594 111.691406 C 138.128906 111.105469 137.980469 110.511719 137.859375 109.90625 C 137.742188 109.304688 137.652344 108.699219 137.589844 108.085938 C 137.53125 107.476562 137.5 106.863281 137.5 106.25 C 137.5 105.636719 137.53125 105.023438 137.589844 104.414062 C 137.652344 103.800781 137.742188 103.195312 137.859375 102.59375 C 137.980469 101.988281 138.128906 101.394531 138.308594 100.808594 C 138.484375 100.21875 138.691406 99.640625 138.925781 99.074219 C 139.164062 98.507812 139.425781 97.953125 139.714844 97.410156 C 140.003906 96.871094 140.320312 96.34375 140.660156 95.832031 C 141 95.324219 141.367188 94.828125 141.757812 94.355469 C 142.144531 93.878906 142.558594 93.425781 142.992188 92.992188 C 143.425781 92.558594 143.878906 92.144531 144.355469 91.757812 C 144.828125 91.367188 145.324219 91 145.832031 90.660156 C 146.34375 90.320312 146.871094 90.003906 147.410156 89.714844 C 147.953125 89.425781 148.507812 89.164062 149.074219 88.925781 C 149.640625 88.691406 150.21875 88.484375 150.808594 88.308594 C 151.394531 88.128906 151.988281 87.980469 152.59375 87.859375 C 153.195312 87.742188 153.800781 87.652344 154.414062 87.589844 C 155.023438 87.53125 155.636719 87.5 156.25 87.5 C 156.863281 87.5 157.476562 87.53125 158.085938 87.589844 C 158.699219 87.652344 159.304688 87.742188 159.90625 87.859375 C 160.511719 87.980469 161.105469 88.128906 161.691406 88.308594 C 162.28125 88.484375 162.859375 88.691406 163.425781 88.925781 C 163.992188 89.164062 164.546875 89.425781 165.089844 89.714844 C 165.628906 90.003906 166.15625 90.320312 166.667969 90.660156 C 167.175781 91 167.671875 91.367188 168.144531 91.757812 C 168.621094 92.144531 169.074219 92.558594 169.507812 92.992188 C 169.941406 93.425781 170.355469 93.878906 170.742188 94.355469 C 171.132812 94.828125 171.5 95.324219 171.839844 95.832031 C 172.179688 96.34375 172.496094 96.871094 172.785156 97.410156 C 173.074219 97.953125 173.335938 98.507812 173.574219 99.074219 C 173.808594 99.640625 174.015625 100.21875 174.191406 100.808594 C 174.371094 101.394531 174.519531 101.988281 174.640625 102.59375 C 174.757812 103.195312 174.847656 103.800781 174.910156 104.414062 C 174.96875 105.023438 175 105.636719 175 106.25 Z M 175 106.25 " fill-opacity="1" fill-rule="nonzero"/><g clip-path="url(#6028591d0a)"><path fill="#0da9e9" d="M 375 268.75 C 375 269.875 374.972656 271 374.917969 272.125 C 374.863281 273.246094 374.777344 274.367188 374.667969 275.488281 C 374.558594 276.609375 374.421875 277.726562 374.253906 278.835938 C 374.089844 279.949219 373.898438 281.058594 373.679688 282.164062 C 373.460938 283.265625 373.214844 284.363281 372.941406 285.453125 C 372.667969 286.546875 372.367188 287.628906 372.039062 288.707031 C 371.714844 289.785156 371.359375 290.851562 370.980469 291.910156 C 370.601562 292.96875 370.195312 294.019531 369.765625 295.058594 C 369.335938 296.097656 368.878906 297.128906 368.398438 298.144531 C 367.917969 299.160156 367.414062 300.167969 366.882812 301.160156 C 366.351562 302.152344 365.796875 303.128906 365.21875 304.09375 C 364.640625 305.058594 364.039062 306.011719 363.414062 306.945312 C 362.789062 307.882812 362.140625 308.800781 361.46875 309.703125 C 360.800781 310.609375 360.109375 311.496094 359.394531 312.363281 C 358.679688 313.234375 357.945312 314.085938 357.191406 314.917969 C 356.433594 315.753906 355.660156 316.566406 354.863281 317.363281 C 354.066406 318.160156 353.253906 318.933594 352.417969 319.691406 C 351.585938 320.445312 350.734375 321.179688 349.863281 321.894531 C 348.996094 322.609375 348.109375 323.300781 347.203125 323.96875 C 346.300781 324.640625 345.382812 325.289062 344.445312 325.914062 C 343.511719 326.539062 342.558594 327.140625 341.59375 327.71875 C 340.628906 328.296875 339.652344 328.851562 338.660156 329.382812 C 337.667969 329.914062 336.660156 330.417969 335.644531 330.898438 C 334.628906 331.378906 333.597656 331.835938 332.558594 332.265625 C 331.519531 332.695312 330.46875 333.101562 329.410156 333.480469 C 328.351562 333.859375 327.285156 334.214844 326.207031 334.539062 C 325.128906 334.867188 324.046875 335.167969 322.953125 335.441406 C 321.863281 335.714844 320.765625 335.960938 319.664062 336.179688 C 318.558594 336.398438 317.449219 336.589844 316.335938 336.753906 C 315.226562 336.921875 314.109375 337.058594 312.988281 337.167969 C 311.867188 337.277344 310.746094 337.363281 309.625 337.417969 C 308.5 337.472656 307.375 337.5 306.25 337.5 C 305.125 337.5 304 337.472656 302.875 337.417969 C 301.753906 337.363281 300.632812 337.277344 299.511719 337.167969 C 298.390625 337.058594 297.273438 336.921875 296.164062 336.753906 C 295.050781 336.589844 293.941406 336.398438 292.835938 336.179688 C 291.734375 335.960938 290.636719 335.714844 289.546875 335.441406 C 288.453125 335.167969 287.371094 334.867188 286.292969 334.539062 C 285.214844 334.214844 284.148438 333.859375 283.089844 333.480469 C 282.03125 333.101562 280.980469 332.695312 279.941406 332.265625 C 278.902344 331.835938 277.871094 331.378906 276.855469 330.898438 C 275.839844 330.417969 274.832031 329.914062 273.839844 329.382812 C 272.847656 328.851562 271.871094 328.296875 270.90625 327.71875 C 269.941406 327.140625 268.988281 326.539062 268.054688 325.914062 C 267.117188 325.289062 266.199219 324.640625 265.296875 323.96875 C 264.390625 323.300781 263.503906 322.609375 262.636719 321.894531 C 261.765625 321.179688 260.914062 320.445312 260.082031 319.691406 C 259.246094 318.933594 258.433594 318.160156 257.636719 317.363281 C 256.839844 316.566406 256.066406 315.753906 255.308594 314.917969 C 254.554688 314.085938 253.820312 313.234375 253.105469 312.363281 C 252.390625 311.496094 251.699219 310.609375 251.03125 309.703125 C 250.359375 308.800781 249.710938 307.882812 249.085938 306.945312 C 248.460938 306.011719 247.859375 305.058594 247.28125 304.09375 C 246.703125 303.128906 246.148438 302.152344 245.617188 301.160156 C 245.085938 300.167969 244.582031 299.160156 244.101562 298.144531 C 243.621094 297.128906 243.164062 296.097656 242.734375 295.058594 C 242.300781 294.019531 241.898438 292.96875 241.519531 291.910156 C 241.140625 290.851562 240.785156 289.785156 240.460938 288.707031 C 240.132812 287.628906 239.832031 286.546875 239.558594 285.453125 C 239.285156 284.363281 239.039062 283.265625 238.820312 282.164062 C 238.601562 281.058594 238.410156 279.949219 238.242188 278.835938 C 238.078125 277.726562 237.941406 276.609375 237.832031 275.488281 C 237.722656 274.367188 237.636719 273.246094 237.582031 272.125 C 237.527344 271 237.5 269.875 237.5 268.75 C 237.5 267.625 237.527344 266.5 237.582031 265.375 C 237.636719 264.253906 237.722656 263.132812 237.832031 262.011719 C 237.941406 260.890625 238.078125 259.773438 238.242188 258.664062 C 238.410156 257.550781 238.601562 256.441406 238.820312 255.335938 C 239.039062 254.234375 239.285156 253.136719 239.558594 252.046875 C 239.832031 250.953125 240.132812 249.871094 240.460938 248.792969 C 240.785156 247.714844 241.140625 246.648438 241.519531 245.589844 C 241.898438 244.53125 242.300781 243.480469 242.734375 242.441406 C 243.164062 241.402344 243.621094 240.371094 244.101562 239.355469 C 244.582031 238.339844 245.085938 237.332031 245.617188 236.339844 C 246.148438 235.347656 246.703125 234.371094 247.28125 233.40625 C 247.859375 232.441406 248.460938 231.488281 249.085938 230.554688 C 249.710938 229.617188 250.359375 228.699219 251.03125 227.796875 C 251.699219 226.890625 252.390625 226.003906 253.105469 225.136719 C 253.820312 224.265625 254.554688 223.414062 255.308594 222.582031 C 256.066406 221.746094 256.839844 220.933594 257.636719 220.136719 C 258.433594 219.339844 259.246094 218.566406 260.082031 217.808594 C 260.914062 217.054688 261.765625 216.320312 262.636719 215.605469 C 263.503906 214.890625 264.390625 214.199219 265.296875 213.53125 C 266.199219 212.859375 267.117188 212.210938 268.054688 211.585938 C 268.988281 210.960938 269.941406 210.359375 270.90625 209.78125 C 271.871094 209.203125 272.847656 208.648438 273.839844 208.117188 C 274.832031 207.585938 275.839844 207.082031 276.855469 206.601562 C 277.871094 206.121094 278.902344 205.664062 279.941406 205.234375 C 280.980469 204.800781 282.03125 204.398438 283.089844 204.019531 C 284.148438 203.640625 285.214844 203.285156 286.292969 202.960938 C 287.371094 202.632812 288.453125 202.332031 289.546875 202.058594 C 290.636719 201.785156 291.734375 201.539062 292.835938 201.320312 C 293.941406 201.101562 295.050781 200.910156 296.164062 200.742188 C 297.273438 200.578125 298.390625 200.441406 299.511719 200.332031 C 300.632812 200.222656 301.753906 200.136719 302.875 200.082031 C 304 200.027344 305.125 200 306.25 200 C 307.375 200 308.5 200.027344 309.625 200.082031 C 310.746094 200.136719 311.867188 200.222656 312.988281 200.332031 C 314.109375 200.441406 315.226562 200.578125 316.335938 200.742188 C 317.449219 200.910156 318.558594 201.101562 319.664062 201.320312 C 320.765625 201.539062 321.863281 201.785156 322.953125 202.058594 C 324.046875 202.332031 325.128906 202.632812 326.207031 202.960938 C 327.285156 203.285156 328.351562 203.640625 329.410156 204.019531 C 330.46875 204.398438 331.519531 204.800781 332.558594 205.234375 C 333.597656 205.664062 334.628906 206.121094 335.644531 206.601562 C 336.660156 207.082031 337.667969 207.585938 338.660156 208.117188 C 339.652344 208.648438 340.628906 209.203125 341.59375 209.78125 C 342.558594 210.359375 343.511719 210.960938 344.445312 211.585938 C 345.382812 212.210938 346.300781 212.859375 347.203125 213.53125 C 348.109375 214.199219 348.996094 214.890625 349.863281 215.605469 C 350.734375 216.320312 351.585938 217.054688 352.417969 217.808594 C 353.253906 218.566406 354.066406 219.339844 354.863281 220.136719 C 355.660156 220.933594 356.433594 221.746094 357.191406 222.582031 C 357.945312 223.414062 358.679688 224.265625 359.394531 225.136719 C 360.109375 226.003906 360.800781 226.890625 361.46875 227.796875 C 362.140625 228.699219 362.789062 229.617188 363.414062 230.554688 C 364.039062 231.488281 364.640625 232.441406 365.21875 233.40625 C 365.796875 234.371094 366.351562 235.347656 366.882812 236.339844 C 367.414062 237.332031 367.917969 238.339844 368.398438 239.355469 C 368.878906 240.371094 369.335938 241.402344 369.765625 242.441406 C 370.195312 243.480469 370.601562 244.53125 370.980469 245.589844 C 371.359375 246.648438 371.714844 247.714844 372.039062 248.792969 C 372.367188 249.871094 372.667969 250.953125 372.941406 252.046875 C 373.214844 253.136719 373.460938 254.234375 373.679688 255.335938 C 373.898438 256.441406 374.089844 257.550781 374.253906 258.664062 C 374.421875 259.773438 374.558594 260.890625 374.667969 262.011719 C 374.777344 263.132812 374.863281 264.253906 374.917969 265.375 C 374.972656 266.5 375 267.625 375 268.75 Z M 375 268.75 " fill-opacity="1" fill-rule="nonzero"/></g><path fill="#ffffff" d="M 335.667969 251.832031 L 310.675781 226.839844 C 310.386719 226.546875 310.070312 226.289062 309.726562 226.0625 C 309.386719 225.835938 309.023438 225.640625 308.644531 225.484375 C 308.265625 225.328125 307.875 225.210938 307.46875 225.128906 C 307.066406 225.050781 306.660156 225.007812 306.25 225.007812 C 305.839844 225.007812 305.433594 225.050781 305.027344 225.128906 C 304.625 225.210938 304.234375 225.328125 303.855469 225.484375 C 303.476562 225.640625 303.113281 225.835938 302.773438 226.0625 C 302.429688 226.289062 302.113281 226.546875 301.824219 226.839844 L 276.832031 251.832031 C 276.550781 252.125 276.296875 252.4375 276.078125 252.78125 C 275.859375 253.121094 275.671875 253.480469 275.523438 253.855469 C 275.371094 254.234375 275.257812 254.621094 275.183594 255.019531 C 275.109375 255.417969 275.074219 255.820312 275.078125 256.226562 C 275.082031 256.632812 275.121094 257.035156 275.203125 257.433594 C 275.285156 257.828125 275.40625 258.214844 275.5625 258.589844 C 275.71875 258.964844 275.910156 259.320312 276.136719 259.65625 C 276.363281 259.992188 276.621094 260.304688 276.90625 260.59375 C 277.195312 260.878906 277.507812 261.136719 277.84375 261.363281 C 278.179688 261.589844 278.535156 261.78125 278.910156 261.9375 C 279.285156 262.09375 279.667969 262.214844 280.066406 262.296875 C 280.464844 262.378906 280.867188 262.417969 281.273438 262.421875 C 281.679688 262.425781 282.082031 262.390625 282.480469 262.316406 C 282.878906 262.242188 283.265625 262.128906 283.644531 261.976562 C 284.019531 261.828125 284.378906 261.640625 284.71875 261.421875 C 285.058594 261.203125 285.375 260.949219 285.667969 260.667969 L 300 246.335938 L 300 306.25 C 300 306.660156 300.039062 307.066406 300.121094 307.46875 C 300.199219 307.871094 300.320312 308.261719 300.476562 308.640625 C 300.632812 309.019531 300.824219 309.382812 301.054688 309.722656 C 301.28125 310.0625 301.539062 310.378906 301.832031 310.667969 C 302.121094 310.960938 302.4375 311.21875 302.777344 311.445312 C 303.117188 311.675781 303.480469 311.867188 303.859375 312.023438 C 304.238281 312.179688 304.628906 312.300781 305.03125 312.378906 C 305.433594 312.460938 305.839844 312.5 306.25 312.5 C 306.660156 312.5 307.066406 312.460938 307.46875 312.378906 C 307.871094 312.300781 308.261719 312.179688 308.640625 312.023438 C 309.019531 311.867188 309.382812 311.675781 309.722656 311.445312 C 310.0625 311.21875 310.378906 310.960938 310.667969 310.667969 C 310.960938 310.378906 311.21875 310.0625 311.445312 309.722656 C 311.675781 309.382812 311.867188 309.019531 312.023438 308.640625 C 312.179688 308.261719 312.300781 307.871094 312.378906 307.46875 C 312.460938 307.066406 312.5 306.660156 312.5 306.25 L 312.5 246.335938 L 326.832031 260.667969 C 327.125 260.949219 327.441406 261.203125 327.78125 261.421875 C 328.121094 261.640625 328.480469 261.828125 328.855469 261.976562 C 329.234375 262.128906 329.621094 262.242188 330.019531 262.316406 C 330.417969 262.390625 330.820312 262.425781 331.226562 262.421875 C 331.632812 262.417969 332.035156 262.378906 332.433594 262.296875 C 332.828125 262.214844 333.214844 262.09375 333.589844 261.9375 C 333.964844 261.78125 334.320312 261.589844 334.65625 261.363281 C 334.992188 261.136719 335.304688 260.878906 335.59375 260.59375 C 335.878906 260.304688 336.136719 259.992188 336.363281 259.65625 C 336.589844 259.320312 336.78125 258.964844 336.9375 258.589844 C 337.09375 258.214844 337.214844 257.828125 337.296875 257.433594 C 337.378906 257.035156 337.417969 256.632812 337.421875 256.226562 C 337.425781 255.820312 337.390625 255.417969 337.316406 255.019531 C 337.242188 254.621094 337.128906 254.234375 336.976562 253.855469 C 336.828125 253.480469 336.640625 253.121094 336.421875 252.78125 C 336.203125 252.4375 335.949219 252.125 335.667969 251.832031 Z M 335.667969 251.832031 " fill-opacity="1" fill-rule="nonzero"/></svg>